<?xml version="1.0" encoding="utf-8" standalone="no"?>
<!DOCTYPE svg PUBLIC "-//W3C//DTD SVG 1.1//EN"
  "http://www.w3.org/Graphics/SVG/1.1/DTD/svg11.dtd">
<!-- Created with matplotlib (http://matplotlib.org/) -->
<svg height="720pt" version="1.1" viewBox="0 0 1080 720" width="1080pt" xmlns="http://www.w3.org/2000/svg" xmlns:xlink="http://www.w3.org/1999/xlink">
 <defs>
  <style type="text/css">
*{stroke-linecap:butt;stroke-linejoin:round;}
  </style>
 </defs>
 <g id="figure_1">
  <g id="patch_1">
   <path d="M 0 720 
L 1080 720 
L 1080 0 
L 0 0 
z
" style="fill:#ffffff;"/>
  </g>
  <g id="axes_1">
   <g id="patch_2">
    <path d="M 14.3 139.04 
L 531.1 139.04 
L 531.1 24.8 
L 14.3 24.8 
z
" style="fill:#ffffff;"/>
   </g>
   <g id="matplotlib.axis_1">
    <g id="xtick_1">
     <g id="line2d_1">
      <defs>
       <path d="M 0 0 
L 0 3.5 
" id="mf710e01945" style="stroke:#000000;stroke-width:0.8;"/>
      </defs>
      <g>
       <use style="stroke:#000000;stroke-width:0.8;" x="14.3" xlink:href="#mf710e01945" y="139.04"/>
      </g>
     </g>
    </g>
    <g id="xtick_2">
     <g id="line2d_2">
      <g>
       <use style="stroke:#000000;stroke-width:0.8;" x="100.433333" xlink:href="#mf710e01945" y="139.04"/>
      </g>
     </g>
    </g>
    <g id="xtick_3">
     <g id="line2d_3">
      <g>
       <use style="stroke:#000000;stroke-width:0.8;" x="186.566667" xlink:href="#mf710e01945" y="139.04"/>
      </g>
     </g>
    </g>
    <g id="xtick_4">
     <g id="line2d_4">
      <g>
       <use style="stroke:#000000;stroke-width:0.8;" x="272.7" xlink:href="#mf710e01945" y="139.04"/>
      </g>
     </g>
    </g>
    <g id="xtick_5">
     <g id="line2d_5">
      <g>
       <use style="stroke:#000000;stroke-width:0.8;" x="358.833333" xlink:href="#mf710e01945" y="139.04"/>
      </g>
     </g>
    </g>
    <g id="xtick_6">
     <g id="line2d_6">
      <g>
       <use style="stroke:#000000;stroke-width:0.8;" x="444.966667" xlink:href="#mf710e01945" y="139.04"/>
      </g>
     </g>
    </g>
    <g id="xtick_7">
     <g id="line2d_7">
      <g>
       <use style="stroke:#000000;stroke-width:0.8;" x="531.1" xlink:href="#mf710e01945" y="139.04"/>
      </g>
     </g>
    </g>
   </g>
   <g id="matplotlib.axis_2">
    <g id="ytick_1">
     <g id="line2d_8">
      <defs>
       <path d="M 0 0 
L -3.5 0 
" id="mee9455cf67" style="stroke:#000000;stroke-width:0.8;"/>
      </defs>
      <g>
       <use style="stroke:#000000;stroke-width:0.8;" x="14.3" xlink:href="#mee9455cf67" y="139.04"/>
      </g>
     </g>
    </g>
    <g id="ytick_2">
     <g id="line2d_9">
      <g>
       <use style="stroke:#000000;stroke-width:0.8;" x="14.3" xlink:href="#mee9455cf67" y="113.076364"/>
      </g>
     </g>
    </g>
    <g id="ytick_3">
     <g id="line2d_10">
      <g>
       <use style="stroke:#000000;stroke-width:0.8;" x="14.3" xlink:href="#mee9455cf67" y="87.112727"/>
      </g>
     </g>
    </g>
    <g id="ytick_4">
     <g id="line2d_11">
      <g>
       <use style="stroke:#000000;stroke-width:0.8;" x="14.3" xlink:href="#mee9455cf67" y="61.149091"/>
      </g>
     </g>
    </g>
    <g id="ytick_5">
     <g id="line2d_12">
      <g>
       <use style="stroke:#000000;stroke-width:0.8;" x="14.3" xlink:href="#mee9455cf67" y="35.185455"/>
      </g>
     </g>
    </g>
   </g>
   <g id="LineCollection_1">
    <path clip-path="url(#p9be4e9532c)" d="M 57.366667 126.058182 
L 100.433333 122.289267 
" style="fill:none;stroke:#f7fcf5;stroke-width:3;"/>
    <path clip-path="url(#p9be4e9532c)" d="M 100.433333 122.289267 
L 143.5 92.882424 
" style="fill:none;stroke:#e7f6e3;stroke-width:3;"/>
    <path clip-path="url(#p9be4e9532c)" d="M 143.5 92.882424 
L 186.566667 107.883636 
" style="fill:none;stroke:#ceecc8;stroke-width:3;"/>
    <path clip-path="url(#p9be4e9532c)" d="M 186.566667 107.883636 
L 229.633333 124.785455 
" style="fill:none;stroke:#aedea7;stroke-width:3;"/>
    <path clip-path="url(#p9be4e9532c)" d="M 229.633333 124.785455 
L 315.766667 131.440887 
" style="fill:none;stroke:#88ce87;stroke-width:3;"/>
    <path clip-path="url(#p9be4e9532c)" d="M 315.766667 131.440887 
L 358.833333 113.076364 
" style="fill:none;stroke:#5db96b;stroke-width:3;"/>
    <path clip-path="url(#p9be4e9532c)" d="M 358.833333 113.076364 
L 401.9 128.296426 
" style="fill:none;stroke:#37a055;stroke-width:3;"/>
    <path clip-path="url(#p9be4e9532c)" d="M 401.9 128.296426 
L 444.966667 120.157355 
" style="fill:none;stroke:#1a843f;stroke-width:3;"/>
    <path clip-path="url(#p9be4e9532c)" d="M 444.966667 120.157355 
L 488.033333 52.494545 
" style="fill:none;stroke:#00682a;stroke-width:3;"/>
   </g>
   <g id="line2d_13">
    <path clip-path="url(#p9be4e9532c)" d="M 57.366667 126.058182 
L 100.433333 122.289267 
L 143.5 92.882424 
L 186.566667 107.883636 
L 229.633333 124.785455 
L 315.766667 131.440887 
L 358.833333 113.076364 
L 401.9 128.296426 
L 444.966667 120.157355 
L 488.033333 52.494545 
" style="fill:none;opacity:0.9;stroke:#1f77b4;stroke-linecap:square;stroke-width:1.9;"/>
   </g>
   <g id="patch_3">
    <path d="M 14.3 139.04 
L 14.3 24.8 
" style="fill:none;stroke:#000000;stroke-linecap:square;stroke-linejoin:miter;stroke-width:0.8;"/>
   </g>
   <g id="patch_4">
    <path d="M 531.1 139.04 
L 531.1 24.8 
" style="fill:none;stroke:#000000;stroke-linecap:square;stroke-linejoin:miter;stroke-width:0.8;"/>
   </g>
   <g id="patch_5">
    <path d="M 14.3 139.04 
L 531.1 139.04 
" style="fill:none;stroke:#000000;stroke-linecap:square;stroke-linejoin:miter;stroke-width:0.8;"/>
   </g>
   <g id="patch_6">
    <path d="M 14.3 24.8 
L 531.1 24.8 
" style="fill:none;stroke:#000000;stroke-linecap:square;stroke-linejoin:miter;stroke-width:0.8;"/>
   </g>
   <g id="text_1">
    <!-- culture -->
    <defs>
     <path d="M 48.78125 52.59375 
L 48.78125 44.1875 
Q 44.96875 46.296875 41.140625 47.34375 
Q 37.3125 48.390625 33.40625 48.390625 
Q 24.65625 48.390625 19.8125 42.84375 
Q 14.984375 37.3125 14.984375 27.296875 
Q 14.984375 17.28125 19.8125 11.734375 
Q 24.65625 6.203125 33.40625 6.203125 
Q 37.3125 6.203125 41.140625 7.25 
Q 44.96875 8.296875 48.78125 10.40625 
L 48.78125 2.09375 
Q 45.015625 0.34375 40.984375 -0.53125 
Q 36.96875 -1.421875 32.421875 -1.421875 
Q 20.0625 -1.421875 12.78125 6.34375 
Q 5.515625 14.109375 5.515625 27.296875 
Q 5.515625 40.671875 12.859375 48.328125 
Q 20.21875 56 33.015625 56 
Q 37.15625 56 41.109375 55.140625 
Q 45.0625 54.296875 48.78125 52.59375 
z
" id="DejaVuSans-63"/>
     <path d="M 8.5 21.578125 
L 8.5 54.6875 
L 17.484375 54.6875 
L 17.484375 21.921875 
Q 17.484375 14.15625 20.5 10.265625 
Q 23.53125 6.390625 29.59375 6.390625 
Q 36.859375 6.390625 41.078125 11.03125 
Q 45.3125 15.671875 45.3125 23.6875 
L 45.3125 54.6875 
L 54.296875 54.6875 
L 54.296875 0 
L 45.3125 0 
L 45.3125 8.40625 
Q 42.046875 3.421875 37.71875 1 
Q 33.40625 -1.421875 27.6875 -1.421875 
Q 18.265625 -1.421875 13.375 4.4375 
Q 8.5 10.296875 8.5 21.578125 
z
M 31.109375 56 
z
" id="DejaVuSans-75"/>
     <path d="M 9.421875 75.984375 
L 18.40625 75.984375 
L 18.40625 0 
L 9.421875 0 
z
" id="DejaVuSans-6c"/>
     <path d="M 18.3125 70.21875 
L 18.3125 54.6875 
L 36.8125 54.6875 
L 36.8125 47.703125 
L 18.3125 47.703125 
L 18.3125 18.015625 
Q 18.3125 11.328125 20.140625 9.421875 
Q 21.96875 7.515625 27.59375 7.515625 
L 36.8125 7.515625 
L 36.8125 0 
L 27.59375 0 
Q 17.1875 0 13.234375 3.875 
Q 9.28125 7.765625 9.28125 18.015625 
L 9.28125 47.703125 
L 2.6875 47.703125 
L 2.6875 54.6875 
L 9.28125 54.6875 
L 9.28125 70.21875 
z
" id="DejaVuSans-74"/>
     <path d="M 41.109375 46.296875 
Q 39.59375 47.171875 37.8125 47.578125 
Q 36.03125 48 33.890625 48 
Q 26.265625 48 22.1875 43.046875 
Q 18.109375 38.09375 18.109375 28.8125 
L 18.109375 0 
L 9.078125 0 
L 9.078125 54.6875 
L 18.109375 54.6875 
L 18.109375 46.1875 
Q 20.953125 51.171875 25.484375 53.578125 
Q 30.03125 56 36.53125 56 
Q 37.453125 56 38.578125 55.875 
Q 39.703125 55.765625 41.0625 55.515625 
z
" id="DejaVuSans-72"/>
     <path d="M 56.203125 29.59375 
L 56.203125 25.203125 
L 14.890625 25.203125 
Q 15.484375 15.921875 20.484375 11.0625 
Q 25.484375 6.203125 34.421875 6.203125 
Q 39.59375 6.203125 44.453125 7.46875 
Q 49.3125 8.734375 54.109375 11.28125 
L 54.109375 2.78125 
Q 49.265625 0.734375 44.1875 -0.34375 
Q 39.109375 -1.421875 33.890625 -1.421875 
Q 20.796875 -1.421875 13.15625 6.1875 
Q 5.515625 13.8125 5.515625 26.8125 
Q 5.515625 40.234375 12.765625 48.109375 
Q 20.015625 56 32.328125 56 
Q 43.359375 56 49.78125 48.890625 
Q 56.203125 41.796875 56.203125 29.59375 
z
M 47.21875 32.234375 
Q 47.125 39.59375 43.09375 43.984375 
Q 39.0625 48.390625 32.421875 48.390625 
Q 24.90625 48.390625 20.390625 44.140625 
Q 15.875 39.890625 15.1875 32.171875 
z
" id="DejaVuSans-65"/>
    </defs>
    <g transform="translate(14.3 18.8)scale(0.1 -0.1)">
     <use xlink:href="#DejaVuSans-63"/>
     <use x="54.980469" xlink:href="#DejaVuSans-75"/>
     <use x="118.359375" xlink:href="#DejaVuSans-6c"/>
     <use x="146.142578" xlink:href="#DejaVuSans-74"/>
     <use x="185.351562" xlink:href="#DejaVuSans-75"/>
     <use x="248.730469" xlink:href="#DejaVuSans-72"/>
     <use x="289.8125" xlink:href="#DejaVuSans-65"/>
    </g>
   </g>
  </g>
  <g id="axes_2">
   <g id="patch_7">
    <path d="M 548.9 139.04 
L 1065.7 139.04 
L 1065.7 24.8 
L 548.9 24.8 
z
" style="fill:#ffffff;"/>
   </g>
   <g id="matplotlib.axis_3">
    <g id="xtick_8">
     <g id="line2d_14">
      <g>
       <use style="stroke:#000000;stroke-width:0.8;" x="548.9" xlink:href="#mf710e01945" y="139.04"/>
      </g>
     </g>
    </g>
    <g id="xtick_9">
     <g id="line2d_15">
      <g>
       <use style="stroke:#000000;stroke-width:0.8;" x="635.033333" xlink:href="#mf710e01945" y="139.04"/>
      </g>
     </g>
    </g>
    <g id="xtick_10">
     <g id="line2d_16">
      <g>
       <use style="stroke:#000000;stroke-width:0.8;" x="721.166667" xlink:href="#mf710e01945" y="139.04"/>
      </g>
     </g>
    </g>
    <g id="xtick_11">
     <g id="line2d_17">
      <g>
       <use style="stroke:#000000;stroke-width:0.8;" x="807.3" xlink:href="#mf710e01945" y="139.04"/>
      </g>
     </g>
    </g>
    <g id="xtick_12">
     <g id="line2d_18">
      <g>
       <use style="stroke:#000000;stroke-width:0.8;" x="893.433333" xlink:href="#mf710e01945" y="139.04"/>
      </g>
     </g>
    </g>
    <g id="xtick_13">
     <g id="line2d_19">
      <g>
       <use style="stroke:#000000;stroke-width:0.8;" x="979.566667" xlink:href="#mf710e01945" y="139.04"/>
      </g>
     </g>
    </g>
    <g id="xtick_14">
     <g id="line2d_20">
      <g>
       <use style="stroke:#000000;stroke-width:0.8;" x="1065.7" xlink:href="#mf710e01945" y="139.04"/>
      </g>
     </g>
    </g>
   </g>
   <g id="matplotlib.axis_4">
    <g id="ytick_6">
     <g id="line2d_21">
      <g>
       <use style="stroke:#000000;stroke-width:0.8;" x="548.9" xlink:href="#mee9455cf67" y="139.04"/>
      </g>
     </g>
    </g>
    <g id="ytick_7">
     <g id="line2d_22">
      <g>
       <use style="stroke:#000000;stroke-width:0.8;" x="548.9" xlink:href="#mee9455cf67" y="113.076364"/>
      </g>
     </g>
    </g>
    <g id="ytick_8">
     <g id="line2d_23">
      <g>
       <use style="stroke:#000000;stroke-width:0.8;" x="548.9" xlink:href="#mee9455cf67" y="87.112727"/>
      </g>
     </g>
    </g>
    <g id="ytick_9">
     <g id="line2d_24">
      <g>
       <use style="stroke:#000000;stroke-width:0.8;" x="548.9" xlink:href="#mee9455cf67" y="61.149091"/>
      </g>
     </g>
    </g>
    <g id="ytick_10">
     <g id="line2d_25">
      <g>
       <use style="stroke:#000000;stroke-width:0.8;" x="548.9" xlink:href="#mee9455cf67" y="35.185455"/>
      </g>
     </g>
    </g>
   </g>
   <g id="LineCollection_2">
    <path clip-path="url(#pec03602c48)" d="M 591.966667 139.04 
L 635.033333 139.04 
" style="fill:none;stroke:#f7fcf5;stroke-width:3;"/>
    <path clip-path="url(#pec03602c48)" d="M 635.033333 139.04 
L 678.1 131.051189 
" style="fill:none;stroke:#e7f6e3;stroke-width:3;"/>
    <path clip-path="url(#pec03602c48)" d="M 678.1 131.051189 
L 721.166667 119.567273 
" style="fill:none;stroke:#ceecc8;stroke-width:3;"/>
    <path clip-path="url(#pec03602c48)" d="M 721.166667 119.567273 
L 764.233333 126.058182 
" style="fill:none;stroke:#aedea7;stroke-width:3;"/>
    <path clip-path="url(#pec03602c48)" d="M 764.233333 126.058182 
L 850.366667 139.04 
" style="fill:none;stroke:#88ce87;stroke-width:3;"/>
    <path clip-path="url(#pec03602c48)" d="M 850.366667 139.04 
L 893.433333 129.598678 
" style="fill:none;stroke:#5db96b;stroke-width:3;"/>
    <path clip-path="url(#pec03602c48)" d="M 893.433333 129.598678 
L 936.5 129.053986 
" style="fill:none;stroke:#37a055;stroke-width:3;"/>
    <path clip-path="url(#pec03602c48)" d="M 936.5 129.053986 
L 979.566667 139.04 
" style="fill:none;stroke:#1a843f;stroke-width:3;"/>
    <path clip-path="url(#pec03602c48)" d="M 979.566667 139.04 
L 1022.633333 35.185455 
" style="fill:none;stroke:#00682a;stroke-width:3;"/>
   </g>
   <g id="line2d_26">
    <path clip-path="url(#pec03602c48)" d="M 591.966667 139.04 
L 635.033333 139.04 
L 678.1 131.051189 
L 721.166667 119.567273 
L 764.233333 126.058182 
L 850.366667 139.04 
L 893.433333 129.598678 
L 936.5 129.053986 
L 979.566667 139.04 
L 1022.633333 35.185455 
" style="fill:none;opacity:0.9;stroke:#1f77b4;stroke-linecap:square;stroke-width:1.9;"/>
   </g>
   <g id="patch_8">
    <path d="M 548.9 139.04 
L 548.9 24.8 
" style="fill:none;stroke:#000000;stroke-linecap:square;stroke-linejoin:miter;stroke-width:0.8;"/>
   </g>
   <g id="patch_9">
    <path d="M 1065.7 139.04 
L 1065.7 24.8 
" style="fill:none;stroke:#000000;stroke-linecap:square;stroke-linejoin:miter;stroke-width:0.8;"/>
   </g>
   <g id="patch_10">
    <path d="M 548.9 139.04 
L 1065.7 139.04 
" style="fill:none;stroke:#000000;stroke-linecap:square;stroke-linejoin:miter;stroke-width:0.8;"/>
   </g>
   <g id="patch_11">
    <path d="M 548.9 24.8 
L 1065.7 24.8 
" style="fill:none;stroke:#000000;stroke-linecap:square;stroke-linejoin:miter;stroke-width:0.8;"/>
   </g>
   <g id="text_2">
    <!-- government -->
    <defs>
     <path d="M 45.40625 27.984375 
Q 45.40625 37.75 41.375 43.109375 
Q 37.359375 48.484375 30.078125 48.484375 
Q 22.859375 48.484375 18.828125 43.109375 
Q 14.796875 37.75 14.796875 27.984375 
Q 14.796875 18.265625 18.828125 12.890625 
Q 22.859375 7.515625 30.078125 7.515625 
Q 37.359375 7.515625 41.375 12.890625 
Q 45.40625 18.265625 45.40625 27.984375 
z
M 54.390625 6.78125 
Q 54.390625 -7.171875 48.1875 -13.984375 
Q 42 -20.796875 29.203125 -20.796875 
Q 24.46875 -20.796875 20.265625 -20.09375 
Q 16.0625 -19.390625 12.109375 -17.921875 
L 12.109375 -9.1875 
Q 16.0625 -11.328125 19.921875 -12.34375 
Q 23.78125 -13.375 27.78125 -13.375 
Q 36.625 -13.375 41.015625 -8.765625 
Q 45.40625 -4.15625 45.40625 5.171875 
L 45.40625 9.625 
Q 42.625 4.78125 38.28125 2.390625 
Q 33.9375 0 27.875 0 
Q 17.828125 0 11.671875 7.65625 
Q 5.515625 15.328125 5.515625 27.984375 
Q 5.515625 40.671875 11.671875 48.328125 
Q 17.828125 56 27.875 56 
Q 33.9375 56 38.28125 53.609375 
Q 42.625 51.21875 45.40625 46.390625 
L 45.40625 54.6875 
L 54.390625 54.6875 
z
" id="DejaVuSans-67"/>
     <path d="M 30.609375 48.390625 
Q 23.390625 48.390625 19.1875 42.75 
Q 14.984375 37.109375 14.984375 27.296875 
Q 14.984375 17.484375 19.15625 11.84375 
Q 23.34375 6.203125 30.609375 6.203125 
Q 37.796875 6.203125 41.984375 11.859375 
Q 46.1875 17.53125 46.1875 27.296875 
Q 46.1875 37.015625 41.984375 42.703125 
Q 37.796875 48.390625 30.609375 48.390625 
z
M 30.609375 56 
Q 42.328125 56 49.015625 48.375 
Q 55.71875 40.765625 55.71875 27.296875 
Q 55.71875 13.875 49.015625 6.21875 
Q 42.328125 -1.421875 30.609375 -1.421875 
Q 18.84375 -1.421875 12.171875 6.21875 
Q 5.515625 13.875 5.515625 27.296875 
Q 5.515625 40.765625 12.171875 48.375 
Q 18.84375 56 30.609375 56 
z
" id="DejaVuSans-6f"/>
     <path d="M 2.984375 54.6875 
L 12.5 54.6875 
L 29.59375 8.796875 
L 46.6875 54.6875 
L 56.203125 54.6875 
L 35.6875 0 
L 23.484375 0 
z
" id="DejaVuSans-76"/>
     <path d="M 54.890625 33.015625 
L 54.890625 0 
L 45.90625 0 
L 45.90625 32.71875 
Q 45.90625 40.484375 42.875 44.328125 
Q 39.84375 48.1875 33.796875 48.1875 
Q 26.515625 48.1875 22.3125 43.546875 
Q 18.109375 38.921875 18.109375 30.90625 
L 18.109375 0 
L 9.078125 0 
L 9.078125 54.6875 
L 18.109375 54.6875 
L 18.109375 46.1875 
Q 21.34375 51.125 25.703125 53.5625 
Q 30.078125 56 35.796875 56 
Q 45.21875 56 50.046875 50.171875 
Q 54.890625 44.34375 54.890625 33.015625 
z
" id="DejaVuSans-6e"/>
     <path d="M 52 44.1875 
Q 55.375 50.25 60.0625 53.125 
Q 64.75 56 71.09375 56 
Q 79.640625 56 84.28125 50.015625 
Q 88.921875 44.046875 88.921875 33.015625 
L 88.921875 0 
L 79.890625 0 
L 79.890625 32.71875 
Q 79.890625 40.578125 77.09375 44.375 
Q 74.3125 48.1875 68.609375 48.1875 
Q 61.625 48.1875 57.5625 43.546875 
Q 53.515625 38.921875 53.515625 30.90625 
L 53.515625 0 
L 44.484375 0 
L 44.484375 32.71875 
Q 44.484375 40.625 41.703125 44.40625 
Q 38.921875 48.1875 33.109375 48.1875 
Q 26.21875 48.1875 22.15625 43.53125 
Q 18.109375 38.875 18.109375 30.90625 
L 18.109375 0 
L 9.078125 0 
L 9.078125 54.6875 
L 18.109375 54.6875 
L 18.109375 46.1875 
Q 21.1875 51.21875 25.484375 53.609375 
Q 29.78125 56 35.6875 56 
Q 41.65625 56 45.828125 52.96875 
Q 50 49.953125 52 44.1875 
z
" id="DejaVuSans-6d"/>
    </defs>
    <g transform="translate(548.9 18.8)scale(0.1 -0.1)">
     <use xlink:href="#DejaVuSans-67"/>
     <use x="63.476562" xlink:href="#DejaVuSans-6f"/>
     <use x="124.658203" xlink:href="#DejaVuSans-76"/>
     <use x="183.837891" xlink:href="#DejaVuSans-65"/>
     <use x="245.361328" xlink:href="#DejaVuSans-72"/>
     <use x="286.458984" xlink:href="#DejaVuSans-6e"/>
     <use x="349.837891" xlink:href="#DejaVuSans-6d"/>
     <use x="447.25" xlink:href="#DejaVuSans-65"/>
     <use x="508.773438" xlink:href="#DejaVuSans-6e"/>
     <use x="572.152344" xlink:href="#DejaVuSans-74"/>
    </g>
   </g>
  </g>
  <g id="axes_3">
   <g id="patch_12">
    <path d="M 14.3 281.58 
L 531.1 281.58 
L 531.1 167.34 
L 14.3 167.34 
z
" style="fill:#ffffff;"/>
   </g>
   <g id="matplotlib.axis_5">
    <g id="xtick_15">
     <g id="line2d_27">
      <g>
       <use style="stroke:#000000;stroke-width:0.8;" x="14.3" xlink:href="#mf710e01945" y="281.58"/>
      </g>
     </g>
    </g>
    <g id="xtick_16">
     <g id="line2d_28">
      <g>
       <use style="stroke:#000000;stroke-width:0.8;" x="100.433333" xlink:href="#mf710e01945" y="281.58"/>
      </g>
     </g>
    </g>
    <g id="xtick_17">
     <g id="line2d_29">
      <g>
       <use style="stroke:#000000;stroke-width:0.8;" x="186.566667" xlink:href="#mf710e01945" y="281.58"/>
      </g>
     </g>
    </g>
    <g id="xtick_18">
     <g id="line2d_30">
      <g>
       <use style="stroke:#000000;stroke-width:0.8;" x="272.7" xlink:href="#mf710e01945" y="281.58"/>
      </g>
     </g>
    </g>
    <g id="xtick_19">
     <g id="line2d_31">
      <g>
       <use style="stroke:#000000;stroke-width:0.8;" x="358.833333" xlink:href="#mf710e01945" y="281.58"/>
      </g>
     </g>
    </g>
    <g id="xtick_20">
     <g id="line2d_32">
      <g>
       <use style="stroke:#000000;stroke-width:0.8;" x="444.966667" xlink:href="#mf710e01945" y="281.58"/>
      </g>
     </g>
    </g>
    <g id="xtick_21">
     <g id="line2d_33">
      <g>
       <use style="stroke:#000000;stroke-width:0.8;" x="531.1" xlink:href="#mf710e01945" y="281.58"/>
      </g>
     </g>
    </g>
   </g>
   <g id="matplotlib.axis_6">
    <g id="ytick_11">
     <g id="line2d_34">
      <g>
       <use style="stroke:#000000;stroke-width:0.8;" x="14.3" xlink:href="#mee9455cf67" y="281.58"/>
      </g>
     </g>
    </g>
    <g id="ytick_12">
     <g id="line2d_35">
      <g>
       <use style="stroke:#000000;stroke-width:0.8;" x="14.3" xlink:href="#mee9455cf67" y="255.616364"/>
      </g>
     </g>
    </g>
    <g id="ytick_13">
     <g id="line2d_36">
      <g>
       <use style="stroke:#000000;stroke-width:0.8;" x="14.3" xlink:href="#mee9455cf67" y="229.652727"/>
      </g>
     </g>
    </g>
    <g id="ytick_14">
     <g id="line2d_37">
      <g>
       <use style="stroke:#000000;stroke-width:0.8;" x="14.3" xlink:href="#mee9455cf67" y="203.689091"/>
      </g>
     </g>
    </g>
    <g id="ytick_15">
     <g id="line2d_38">
      <g>
       <use style="stroke:#000000;stroke-width:0.8;" x="14.3" xlink:href="#mee9455cf67" y="177.725455"/>
      </g>
     </g>
    </g>
   </g>
   <g id="LineCollection_3">
    <path clip-path="url(#pdb9928c4de)" d="M 57.366667 258.861818 
L 100.433333 260.809091 
" style="fill:none;stroke:#f7fcf5;stroke-width:3;"/>
    <path clip-path="url(#pdb9928c4de)" d="M 100.433333 260.809091 
L 143.5 263.51834 
" style="fill:none;stroke:#e7f6e3;stroke-width:3;"/>
    <path clip-path="url(#pdb9928c4de)" d="M 143.5 263.51834 
L 186.566667 252.090438 
" style="fill:none;stroke:#ceecc8;stroke-width:3;"/>
    <path clip-path="url(#pdb9928c4de)" d="M 186.566667 252.090438 
L 229.633333 265.352727 
" style="fill:none;stroke:#aedea7;stroke-width:3;"/>
    <path clip-path="url(#pdb9928c4de)" d="M 229.633333 265.352727 
L 315.766667 263.776364 
" style="fill:none;stroke:#88ce87;stroke-width:3;"/>
    <path clip-path="url(#pdb9928c4de)" d="M 315.766667 263.776364 
L 358.833333 270.040606 
" style="fill:none;stroke:#5db96b;stroke-width:3;"/>
    <path clip-path="url(#pdb9928c4de)" d="M 358.833333 270.040606 
L 401.9 271.731724 
" style="fill:none;stroke:#37a055;stroke-width:3;"/>
    <path clip-path="url(#pdb9928c4de)" d="M 401.9 271.731724 
L 444.966667 263.154194 
" style="fill:none;stroke:#1a843f;stroke-width:3;"/>
    <path clip-path="url(#pdb9928c4de)" d="M 444.966667 263.154194 
L 488.033333 192.561818 
" style="fill:none;stroke:#00682a;stroke-width:3;"/>
   </g>
   <g id="line2d_39">
    <path clip-path="url(#pdb9928c4de)" d="M 57.366667 258.861818 
L 100.433333 260.809091 
L 143.5 263.51834 
L 186.566667 252.090438 
L 229.633333 265.352727 
L 315.766667 263.776364 
L 358.833333 270.040606 
L 401.9 271.731724 
L 444.966667 263.154194 
L 488.033333 192.561818 
" style="fill:none;opacity:0.9;stroke:#1f77b4;stroke-linecap:square;stroke-width:1.9;"/>
   </g>
   <g id="patch_13">
    <path d="M 14.3 281.58 
L 14.3 167.34 
" style="fill:none;stroke:#000000;stroke-linecap:square;stroke-linejoin:miter;stroke-width:0.8;"/>
   </g>
   <g id="patch_14">
    <path d="M 531.1 281.58 
L 531.1 167.34 
" style="fill:none;stroke:#000000;stroke-linecap:square;stroke-linejoin:miter;stroke-width:0.8;"/>
   </g>
   <g id="patch_15">
    <path d="M 14.3 281.58 
L 531.1 281.58 
" style="fill:none;stroke:#000000;stroke-linecap:square;stroke-linejoin:miter;stroke-width:0.8;"/>
   </g>
   <g id="patch_16">
    <path d="M 14.3 167.34 
L 531.1 167.34 
" style="fill:none;stroke:#000000;stroke-linecap:square;stroke-linejoin:miter;stroke-width:0.8;"/>
   </g>
   <g id="text_3">
    <!-- gun control -->
    <defs>
     <path id="DejaVuSans-20"/>
    </defs>
    <g transform="translate(14.3 161.34)scale(0.1 -0.1)">
     <use xlink:href="#DejaVuSans-67"/>
     <use x="63.476562" xlink:href="#DejaVuSans-75"/>
     <use x="126.855469" xlink:href="#DejaVuSans-6e"/>
     <use x="190.234375" xlink:href="#DejaVuSans-20"/>
     <use x="222.021484" xlink:href="#DejaVuSans-63"/>
     <use x="277.001953" xlink:href="#DejaVuSans-6f"/>
     <use x="338.183594" xlink:href="#DejaVuSans-6e"/>
     <use x="401.5625" xlink:href="#DejaVuSans-74"/>
     <use x="440.771484" xlink:href="#DejaVuSans-72"/>
     <use x="481.853516" xlink:href="#DejaVuSans-6f"/>
     <use x="543.035156" xlink:href="#DejaVuSans-6c"/>
    </g>
   </g>
  </g>
  <g id="axes_4">
   <g id="patch_17">
    <path d="M 548.9 281.58 
L 1065.7 281.58 
L 1065.7 167.34 
L 548.9 167.34 
z
" style="fill:#ffffff;"/>
   </g>
   <g id="matplotlib.axis_7">
    <g id="xtick_22">
     <g id="line2d_40">
      <g>
       <use style="stroke:#000000;stroke-width:0.8;" x="548.9" xlink:href="#mf710e01945" y="281.58"/>
      </g>
     </g>
    </g>
    <g id="xtick_23">
     <g id="line2d_41">
      <g>
       <use style="stroke:#000000;stroke-width:0.8;" x="635.033333" xlink:href="#mf710e01945" y="281.58"/>
      </g>
     </g>
    </g>
    <g id="xtick_24">
     <g id="line2d_42">
      <g>
       <use style="stroke:#000000;stroke-width:0.8;" x="721.166667" xlink:href="#mf710e01945" y="281.58"/>
      </g>
     </g>
    </g>
    <g id="xtick_25">
     <g id="line2d_43">
      <g>
       <use style="stroke:#000000;stroke-width:0.8;" x="807.3" xlink:href="#mf710e01945" y="281.58"/>
      </g>
     </g>
    </g>
    <g id="xtick_26">
     <g id="line2d_44">
      <g>
       <use style="stroke:#000000;stroke-width:0.8;" x="893.433333" xlink:href="#mf710e01945" y="281.58"/>
      </g>
     </g>
    </g>
    <g id="xtick_27">
     <g id="line2d_45">
      <g>
       <use style="stroke:#000000;stroke-width:0.8;" x="979.566667" xlink:href="#mf710e01945" y="281.58"/>
      </g>
     </g>
    </g>
    <g id="xtick_28">
     <g id="line2d_46">
      <g>
       <use style="stroke:#000000;stroke-width:0.8;" x="1065.7" xlink:href="#mf710e01945" y="281.58"/>
      </g>
     </g>
    </g>
   </g>
   <g id="matplotlib.axis_8">
    <g id="ytick_16">
     <g id="line2d_47">
      <g>
       <use style="stroke:#000000;stroke-width:0.8;" x="548.9" xlink:href="#mee9455cf67" y="281.58"/>
      </g>
     </g>
    </g>
    <g id="ytick_17">
     <g id="line2d_48">
      <g>
       <use style="stroke:#000000;stroke-width:0.8;" x="548.9" xlink:href="#mee9455cf67" y="255.616364"/>
      </g>
     </g>
    </g>
    <g id="ytick_18">
     <g id="line2d_49">
      <g>
       <use style="stroke:#000000;stroke-width:0.8;" x="548.9" xlink:href="#mee9455cf67" y="229.652727"/>
      </g>
     </g>
    </g>
    <g id="ytick_19">
     <g id="line2d_50">
      <g>
       <use style="stroke:#000000;stroke-width:0.8;" x="548.9" xlink:href="#mee9455cf67" y="203.689091"/>
      </g>
     </g>
    </g>
    <g id="ytick_20">
     <g id="line2d_51">
      <g>
       <use style="stroke:#000000;stroke-width:0.8;" x="548.9" xlink:href="#mee9455cf67" y="177.725455"/>
      </g>
     </g>
    </g>
   </g>
   <g id="LineCollection_4">
    <path clip-path="url(#pdf4e036f18)" d="M 591.966667 262.107273 
L 635.033333 260.258868 
" style="fill:none;stroke:#f7fcf5;stroke-width:3;"/>
    <path clip-path="url(#pdf4e036f18)" d="M 635.033333 260.258868 
L 678.1 265.930685 
" style="fill:none;stroke:#e7f6e3;stroke-width:3;"/>
    <path clip-path="url(#pdf4e036f18)" d="M 678.1 265.930685 
L 721.166667 256.852727 
" style="fill:none;stroke:#ceecc8;stroke-width:3;"/>
    <path clip-path="url(#pdf4e036f18)" d="M 721.166667 256.852727 
L 764.233333 267.991555 
" style="fill:none;stroke:#aedea7;stroke-width:3;"/>
    <path clip-path="url(#pdf4e036f18)" d="M 764.233333 267.991555 
L 850.366667 262.622424 
" style="fill:none;stroke:#88ce87;stroke-width:3;"/>
    <path clip-path="url(#pdf4e036f18)" d="M 850.366667 262.622424 
L 893.433333 272.925455 
" style="fill:none;stroke:#5db96b;stroke-width:3;"/>
    <path clip-path="url(#pdf4e036f18)" d="M 893.433333 272.925455 
L 936.5 263.405455 
" style="fill:none;stroke:#37a055;stroke-width:3;"/>
    <path clip-path="url(#pdf4e036f18)" d="M 936.5 263.405455 
L 979.566667 261.386061 
" style="fill:none;stroke:#1a843f;stroke-width:3;"/>
    <path clip-path="url(#pdf4e036f18)" d="M 979.566667 261.386061 
L 1022.633333 193.952727 
" style="fill:none;stroke:#00682a;stroke-width:3;"/>
   </g>
   <g id="line2d_52">
    <path clip-path="url(#pdf4e036f18)" d="M 591.966667 262.107273 
L 635.033333 260.258868 
L 678.1 265.930685 
L 721.166667 256.852727 
L 764.233333 267.991555 
L 850.366667 262.622424 
L 893.433333 272.925455 
L 936.5 263.405455 
L 979.566667 261.386061 
L 1022.633333 193.952727 
" style="fill:none;opacity:0.9;stroke:#1f77b4;stroke-linecap:square;stroke-width:1.9;"/>
   </g>
   <g id="patch_18">
    <path d="M 548.9 281.58 
L 548.9 167.34 
" style="fill:none;stroke:#000000;stroke-linecap:square;stroke-linejoin:miter;stroke-width:0.8;"/>
   </g>
   <g id="patch_19">
    <path d="M 1065.7 281.58 
L 1065.7 167.34 
" style="fill:none;stroke:#000000;stroke-linecap:square;stroke-linejoin:miter;stroke-width:0.8;"/>
   </g>
   <g id="patch_20">
    <path d="M 548.9 281.58 
L 1065.7 281.58 
" style="fill:none;stroke:#000000;stroke-linecap:square;stroke-linejoin:miter;stroke-width:0.8;"/>
   </g>
   <g id="patch_21">
    <path d="M 548.9 167.34 
L 1065.7 167.34 
" style="fill:none;stroke:#000000;stroke-linecap:square;stroke-linejoin:miter;stroke-width:0.8;"/>
   </g>
   <g id="text_4">
    <!-- guns -->
    <defs>
     <path d="M 44.28125 53.078125 
L 44.28125 44.578125 
Q 40.484375 46.53125 36.375 47.5 
Q 32.28125 48.484375 27.875 48.484375 
Q 21.1875 48.484375 17.84375 46.4375 
Q 14.5 44.390625 14.5 40.28125 
Q 14.5 37.15625 16.890625 35.375 
Q 19.28125 33.59375 26.515625 31.984375 
L 29.59375 31.296875 
Q 39.15625 29.25 43.1875 25.515625 
Q 47.21875 21.78125 47.21875 15.09375 
Q 47.21875 7.46875 41.1875 3.015625 
Q 35.15625 -1.421875 24.609375 -1.421875 
Q 20.21875 -1.421875 15.453125 -0.5625 
Q 10.6875 0.296875 5.421875 2 
L 5.421875 11.28125 
Q 10.40625 8.6875 15.234375 7.390625 
Q 20.0625 6.109375 24.8125 6.109375 
Q 31.15625 6.109375 34.5625 8.28125 
Q 37.984375 10.453125 37.984375 14.40625 
Q 37.984375 18.0625 35.515625 20.015625 
Q 33.0625 21.96875 24.703125 23.78125 
L 21.578125 24.515625 
Q 13.234375 26.265625 9.515625 29.90625 
Q 5.8125 33.546875 5.8125 39.890625 
Q 5.8125 47.609375 11.28125 51.796875 
Q 16.75 56 26.8125 56 
Q 31.78125 56 36.171875 55.265625 
Q 40.578125 54.546875 44.28125 53.078125 
z
" id="DejaVuSans-73"/>
    </defs>
    <g transform="translate(548.9 161.34)scale(0.1 -0.1)">
     <use xlink:href="#DejaVuSans-67"/>
     <use x="63.476562" xlink:href="#DejaVuSans-75"/>
     <use x="126.855469" xlink:href="#DejaVuSans-6e"/>
     <use x="190.234375" xlink:href="#DejaVuSans-73"/>
    </g>
   </g>
  </g>
  <g id="axes_5">
   <g id="patch_22">
    <path d="M 14.3 424.12 
L 531.1 424.12 
L 531.1 309.88 
L 14.3 309.88 
z
" style="fill:#ffffff;"/>
   </g>
   <g id="matplotlib.axis_9">
    <g id="xtick_29">
     <g id="line2d_53">
      <g>
       <use style="stroke:#000000;stroke-width:0.8;" x="14.3" xlink:href="#mf710e01945" y="424.12"/>
      </g>
     </g>
    </g>
    <g id="xtick_30">
     <g id="line2d_54">
      <g>
       <use style="stroke:#000000;stroke-width:0.8;" x="100.433333" xlink:href="#mf710e01945" y="424.12"/>
      </g>
     </g>
    </g>
    <g id="xtick_31">
     <g id="line2d_55">
      <g>
       <use style="stroke:#000000;stroke-width:0.8;" x="186.566667" xlink:href="#mf710e01945" y="424.12"/>
      </g>
     </g>
    </g>
    <g id="xtick_32">
     <g id="line2d_56">
      <g>
       <use style="stroke:#000000;stroke-width:0.8;" x="272.7" xlink:href="#mf710e01945" y="424.12"/>
      </g>
     </g>
    </g>
    <g id="xtick_33">
     <g id="line2d_57">
      <g>
       <use style="stroke:#000000;stroke-width:0.8;" x="358.833333" xlink:href="#mf710e01945" y="424.12"/>
      </g>
     </g>
    </g>
    <g id="xtick_34">
     <g id="line2d_58">
      <g>
       <use style="stroke:#000000;stroke-width:0.8;" x="444.966667" xlink:href="#mf710e01945" y="424.12"/>
      </g>
     </g>
    </g>
    <g id="xtick_35">
     <g id="line2d_59">
      <g>
       <use style="stroke:#000000;stroke-width:0.8;" x="531.1" xlink:href="#mf710e01945" y="424.12"/>
      </g>
     </g>
    </g>
   </g>
   <g id="matplotlib.axis_10">
    <g id="ytick_21">
     <g id="line2d_60">
      <g>
       <use style="stroke:#000000;stroke-width:0.8;" x="14.3" xlink:href="#mee9455cf67" y="424.12"/>
      </g>
     </g>
    </g>
    <g id="ytick_22">
     <g id="line2d_61">
      <g>
       <use style="stroke:#000000;stroke-width:0.8;" x="14.3" xlink:href="#mee9455cf67" y="398.156364"/>
      </g>
     </g>
    </g>
    <g id="ytick_23">
     <g id="line2d_62">
      <g>
       <use style="stroke:#000000;stroke-width:0.8;" x="14.3" xlink:href="#mee9455cf67" y="372.192727"/>
      </g>
     </g>
    </g>
    <g id="ytick_24">
     <g id="line2d_63">
      <g>
       <use style="stroke:#000000;stroke-width:0.8;" x="14.3" xlink:href="#mee9455cf67" y="346.229091"/>
      </g>
     </g>
    </g>
    <g id="ytick_25">
     <g id="line2d_64">
      <g>
       <use style="stroke:#000000;stroke-width:0.8;" x="14.3" xlink:href="#mee9455cf67" y="320.265455"/>
      </g>
     </g>
    </g>
   </g>
   <g id="LineCollection_5">
    <path clip-path="url(#p8652e03829)" d="M 57.366667 397.414545 
L 100.433333 404.598469 
" style="fill:none;stroke:#f7fcf5;stroke-width:3;"/>
    <path clip-path="url(#p8652e03829)" d="M 100.433333 404.598469 
L 143.5 398.156364 
" style="fill:none;stroke:#e7f6e3;stroke-width:3;"/>
    <path clip-path="url(#p8652e03829)" d="M 143.5 398.156364 
L 186.566667 395.898656 
" style="fill:none;stroke:#ceecc8;stroke-width:3;"/>
    <path clip-path="url(#p8652e03829)" d="M 186.566667 395.898656 
L 229.633333 410.883636 
" style="fill:none;stroke:#aedea7;stroke-width:3;"/>
    <path clip-path="url(#p8652e03829)" d="M 229.633333 410.883636 
L 315.766667 408.823594 
" style="fill:none;stroke:#88ce87;stroke-width:3;"/>
    <path clip-path="url(#p8652e03829)" d="M 315.766667 408.823594 
L 358.833333 412.202265 
" style="fill:none;stroke:#5db96b;stroke-width:3;"/>
    <path clip-path="url(#p8652e03829)" d="M 358.833333 412.202265 
L 401.9 413.091199 
" style="fill:none;stroke:#37a055;stroke-width:3;"/>
    <path clip-path="url(#p8652e03829)" d="M 401.9 413.091199 
L 444.966667 412.580606 
" style="fill:none;stroke:#1a843f;stroke-width:3;"/>
    <path clip-path="url(#p8652e03829)" d="M 444.966667 412.580606 
L 488.033333 341.752602 
" style="fill:none;stroke:#00682a;stroke-width:3;"/>
   </g>
   <g id="line2d_65">
    <path clip-path="url(#p8652e03829)" d="M 57.366667 397.414545 
L 100.433333 404.598469 
L 143.5 398.156364 
L 186.566667 395.898656 
L 229.633333 410.883636 
L 315.766667 408.823594 
L 358.833333 412.202265 
L 401.9 413.091199 
L 444.966667 412.580606 
L 488.033333 341.752602 
" style="fill:none;opacity:0.9;stroke:#1f77b4;stroke-linecap:square;stroke-width:1.9;"/>
   </g>
   <g id="patch_23">
    <path d="M 14.3 424.12 
L 14.3 309.88 
" style="fill:none;stroke:#000000;stroke-linecap:square;stroke-linejoin:miter;stroke-width:0.8;"/>
   </g>
   <g id="patch_24">
    <path d="M 531.1 424.12 
L 531.1 309.88 
" style="fill:none;stroke:#000000;stroke-linecap:square;stroke-linejoin:miter;stroke-width:0.8;"/>
   </g>
   <g id="patch_25">
    <path d="M 14.3 424.12 
L 531.1 424.12 
" style="fill:none;stroke:#000000;stroke-linecap:square;stroke-linejoin:miter;stroke-width:0.8;"/>
   </g>
   <g id="patch_26">
    <path d="M 14.3 309.88 
L 531.1 309.88 
" style="fill:none;stroke:#000000;stroke-linecap:square;stroke-linejoin:miter;stroke-width:0.8;"/>
   </g>
   <g id="text_5">
    <!-- incident -->
    <defs>
     <path d="M 9.421875 54.6875 
L 18.40625 54.6875 
L 18.40625 0 
L 9.421875 0 
z
M 9.421875 75.984375 
L 18.40625 75.984375 
L 18.40625 64.59375 
L 9.421875 64.59375 
z
" id="DejaVuSans-69"/>
     <path d="M 45.40625 46.390625 
L 45.40625 75.984375 
L 54.390625 75.984375 
L 54.390625 0 
L 45.40625 0 
L 45.40625 8.203125 
Q 42.578125 3.328125 38.25 0.953125 
Q 33.9375 -1.421875 27.875 -1.421875 
Q 17.96875 -1.421875 11.734375 6.484375 
Q 5.515625 14.40625 5.515625 27.296875 
Q 5.515625 40.1875 11.734375 48.09375 
Q 17.96875 56 27.875 56 
Q 33.9375 56 38.25 53.625 
Q 42.578125 51.265625 45.40625 46.390625 
z
M 14.796875 27.296875 
Q 14.796875 17.390625 18.875 11.75 
Q 22.953125 6.109375 30.078125 6.109375 
Q 37.203125 6.109375 41.296875 11.75 
Q 45.40625 17.390625 45.40625 27.296875 
Q 45.40625 37.203125 41.296875 42.84375 
Q 37.203125 48.484375 30.078125 48.484375 
Q 22.953125 48.484375 18.875 42.84375 
Q 14.796875 37.203125 14.796875 27.296875 
z
" id="DejaVuSans-64"/>
    </defs>
    <g transform="translate(14.3 303.88)scale(0.1 -0.1)">
     <use xlink:href="#DejaVuSans-69"/>
     <use x="27.783203" xlink:href="#DejaVuSans-6e"/>
     <use x="91.162109" xlink:href="#DejaVuSans-63"/>
     <use x="146.142578" xlink:href="#DejaVuSans-69"/>
     <use x="173.925781" xlink:href="#DejaVuSans-64"/>
     <use x="237.402344" xlink:href="#DejaVuSans-65"/>
     <use x="298.925781" xlink:href="#DejaVuSans-6e"/>
     <use x="362.304688" xlink:href="#DejaVuSans-74"/>
    </g>
   </g>
  </g>
  <g id="text_6">
   <!-- Negative sentiment of general topics by Polarization ('Conservative' (Infowars) to 'Liberal' (The Nation)) -->
   <defs>
    <path d="M 16.890625 72.90625 
L 30.171875 72.90625 
L 50.296875 10.40625 
L 62.5 72.90625 
L 72.125 72.90625 
L 57.90625 0 
L 44.578125 0 
L 24.515625 62.890625 
L 12.3125 0 
L 2.6875 0 
z
" id="DejaVuSans-Oblique-4e"/>
    <path d="M 48.09375 32.234375 
Q 48.25 33.015625 48.3125 33.84375 
Q 48.390625 34.671875 48.390625 35.5 
Q 48.390625 41.453125 44.890625 44.921875 
Q 41.40625 48.390625 35.40625 48.390625 
Q 28.71875 48.390625 23.578125 44.15625 
Q 18.453125 39.9375 15.828125 32.171875 
z
M 55.90625 25.203125 
L 14.109375 25.203125 
Q 13.8125 23.34375 13.71875 22.265625 
Q 13.625 21.1875 13.625 20.40625 
Q 13.625 13.625 17.796875 9.90625 
Q 21.96875 6.203125 29.59375 6.203125 
Q 35.453125 6.203125 40.671875 7.515625 
Q 45.90625 8.84375 50.390625 11.375 
L 48.6875 2.484375 
Q 43.84375 0.53125 38.6875 -0.4375 
Q 33.546875 -1.421875 28.21875 -1.421875 
Q 16.84375 -1.421875 10.71875 4.015625 
Q 4.59375 9.46875 4.59375 19.484375 
Q 4.59375 28.03125 7.640625 35.375 
Q 10.6875 42.71875 16.609375 48.484375 
Q 20.40625 52.09375 25.65625 54.046875 
Q 30.90625 56 36.8125 56 
Q 46.09375 56 51.578125 50.4375 
Q 57.078125 44.875 57.078125 35.5 
Q 57.078125 33.25 56.78125 30.6875 
Q 56.5 28.125 55.90625 25.203125 
z
" id="DejaVuSans-Oblique-65"/>
    <path d="M 59.625 54.6875 
L 50.296875 6.78125 
Q 47.609375 -7.125 40.015625 -13.953125 
Q 32.421875 -20.796875 19.578125 -20.796875 
Q 14.84375 -20.796875 10.78125 -20.09375 
Q 6.734375 -19.390625 3.21875 -17.921875 
L 4.890625 -9.1875 
Q 8.203125 -11.328125 11.90625 -12.34375 
Q 15.625 -13.375 19.828125 -13.375 
Q 28.375 -13.375 33.859375 -8.703125 
Q 39.359375 -4.046875 41.109375 4.6875 
L 41.890625 8.796875 
Q 38.140625 4.5 33.15625 2.25 
Q 28.171875 0 22.40625 0 
Q 14.109375 0 9.34375 5.484375 
Q 4.59375 10.984375 4.59375 20.609375 
Q 4.59375 28.171875 7.46875 35.421875 
Q 10.359375 42.671875 15.578125 48.296875 
Q 19.046875 52 23.65625 54 
Q 28.265625 56 33.296875 56 
Q 38.8125 56 42.90625 53.4375 
Q 47.015625 50.875 49.03125 46.1875 
L 50.59375 54.6875 
z
M 46.09375 34.625 
Q 46.09375 41.265625 42.96875 44.875 
Q 39.84375 48.484375 34.078125 48.484375 
Q 30.515625 48.484375 27.296875 47.0625 
Q 24.078125 45.65625 21.78125 43.109375 
Q 18.0625 38.921875 15.984375 33.234375 
Q 13.921875 27.546875 13.921875 21.484375 
Q 13.921875 14.75 17.0625 11.125 
Q 20.21875 7.515625 26.125 7.515625 
Q 34.671875 7.515625 40.375 15.25 
Q 46.09375 23 46.09375 34.625 
z
" id="DejaVuSans-Oblique-67"/>
    <path d="M 53.71875 31.203125 
L 47.609375 0 
L 38.625 0 
L 40.28125 8.296875 
Q 36.328125 3.421875 31.265625 1 
Q 26.21875 -1.421875 20.015625 -1.421875 
Q 13.03125 -1.421875 8.5625 2.84375 
Q 4.109375 7.125 4.109375 13.8125 
Q 4.109375 23.390625 11.75 28.953125 
Q 19.390625 34.515625 32.8125 34.515625 
L 45.3125 34.515625 
L 45.796875 36.921875 
Q 45.90625 37.3125 45.953125 37.765625 
Q 46 38.234375 46 39.203125 
Q 46 43.5625 42.453125 45.96875 
Q 38.921875 48.390625 32.515625 48.390625 
Q 28.125 48.390625 23.5 47.265625 
Q 18.890625 46.140625 14.015625 43.890625 
L 15.578125 52.203125 
Q 20.65625 54.109375 25.515625 55.046875 
Q 30.375 56 34.90625 56 
Q 44.578125 56 49.625 51.796875 
Q 54.6875 47.609375 54.6875 39.59375 
Q 54.6875 37.984375 54.4375 35.8125 
Q 54.203125 33.640625 53.71875 31.203125 
z
M 44 27.484375 
L 35.015625 27.484375 
Q 23.96875 27.484375 18.671875 24.53125 
Q 13.375 21.578125 13.375 15.375 
Q 13.375 11.078125 16.078125 8.640625 
Q 18.796875 6.203125 23.578125 6.203125 
Q 30.90625 6.203125 36.375 11.453125 
Q 41.84375 16.703125 43.609375 25.484375 
z
" id="DejaVuSans-Oblique-61"/>
    <path d="M 42.28125 54.6875 
L 40.921875 47.703125 
L 23 47.703125 
L 17.1875 18.015625 
Q 16.890625 16.359375 16.75 15.234375 
Q 16.609375 14.109375 16.609375 13.484375 
Q 16.609375 10.359375 18.484375 8.9375 
Q 20.359375 7.515625 24.515625 7.515625 
L 33.59375 7.515625 
L 32.078125 0 
L 23.484375 0 
Q 15.484375 0 11.546875 3.125 
Q 7.625 6.25 7.625 12.59375 
Q 7.625 13.71875 7.765625 15.0625 
Q 7.90625 16.40625 8.203125 18.015625 
L 14.015625 47.703125 
L 6.390625 47.703125 
L 7.8125 54.6875 
L 15.28125 54.6875 
L 18.3125 70.21875 
L 27.296875 70.21875 
L 24.3125 54.6875 
z
" id="DejaVuSans-Oblique-74"/>
    <path d="M 18.3125 75.984375 
L 27.296875 75.984375 
L 25.09375 64.59375 
L 16.109375 64.59375 
z
M 14.203125 54.6875 
L 23.1875 54.6875 
L 12.5 0 
L 3.515625 0 
z
" id="DejaVuSans-Oblique-69"/>
    <path d="M 7.171875 54.6875 
L 16.703125 54.6875 
L 24.703125 8.203125 
L 50.875 54.6875 
L 60.40625 54.6875 
L 29.296875 0 
L 17.1875 0 
z
" id="DejaVuSans-Oblique-76"/>
    <path id="DejaVuSans-Oblique-20"/>
    <path d="M 50 53.078125 
L 48.296875 44.578125 
Q 44.734375 46.53125 40.765625 47.5 
Q 36.8125 48.484375 32.625 48.484375 
Q 25.53125 48.484375 21.453125 46.0625 
Q 17.390625 43.65625 17.390625 39.5 
Q 17.390625 34.671875 26.859375 32.078125 
Q 27.59375 31.890625 27.9375 31.78125 
L 30.8125 30.90625 
Q 39.796875 28.421875 42.796875 25.6875 
Q 45.796875 22.953125 45.796875 18.21875 
Q 45.796875 9.515625 38.890625 4.046875 
Q 31.984375 -1.421875 20.796875 -1.421875 
Q 16.453125 -1.421875 11.671875 -0.578125 
Q 6.890625 0.25 1.125 2 
L 2.875 11.28125 
Q 7.8125 8.734375 12.59375 7.421875 
Q 17.390625 6.109375 21.78125 6.109375 
Q 28.375 6.109375 32.5 8.9375 
Q 36.625 11.765625 36.625 16.109375 
Q 36.625 20.796875 25.78125 23.6875 
L 24.859375 23.921875 
L 21.78125 24.703125 
Q 14.9375 26.515625 11.765625 29.46875 
Q 8.59375 32.421875 8.59375 37.015625 
Q 8.59375 45.75 15.15625 50.875 
Q 21.734375 56 33.015625 56 
Q 37.453125 56 41.671875 55.265625 
Q 45.90625 54.546875 50 53.078125 
z
" id="DejaVuSans-Oblique-73"/>
    <path d="M 55.71875 33.015625 
L 49.3125 0 
L 40.28125 0 
L 46.6875 32.671875 
Q 47.125 34.96875 47.359375 36.71875 
Q 47.609375 38.484375 47.609375 39.5 
Q 47.609375 43.609375 45.015625 45.890625 
Q 42.4375 48.1875 37.796875 48.1875 
Q 30.5625 48.1875 25.34375 43.375 
Q 20.125 38.578125 18.5 30.328125 
L 12.5 0 
L 3.515625 0 
L 14.109375 54.6875 
L 23.09375 54.6875 
L 21.296875 46.09375 
Q 25.046875 50.828125 30.3125 53.40625 
Q 35.59375 56 41.40625 56 
Q 48.640625 56 52.609375 52.09375 
Q 56.59375 48.1875 56.59375 41.109375 
Q 56.59375 39.359375 56.375 37.359375 
Q 56.15625 35.359375 55.71875 33.015625 
z
" id="DejaVuSans-Oblique-6e"/>
    <path d="M 89.796875 33.015625 
L 83.40625 0 
L 74.421875 0 
L 80.71875 32.71875 
Q 81.109375 34.8125 81.296875 36.328125 
Q 81.5 37.84375 81.5 38.921875 
Q 81.5 43.3125 79.046875 45.75 
Q 76.609375 48.1875 72.21875 48.1875 
Q 65.671875 48.1875 60.546875 43.28125 
Q 55.421875 38.375 53.90625 30.515625 
L 47.90625 0 
L 38.921875 0 
L 45.3125 32.71875 
Q 45.703125 34.515625 45.890625 36.046875 
Q 46.09375 37.59375 46.09375 38.8125 
Q 46.09375 43.265625 43.65625 45.71875 
Q 41.21875 48.1875 36.921875 48.1875 
Q 30.28125 48.1875 25.140625 43.28125 
Q 20.015625 38.375 18.5 30.515625 
L 12.5 0 
L 3.515625 0 
L 14.203125 54.6875 
L 23.1875 54.6875 
L 21.484375 46.1875 
Q 25.140625 50.984375 30.046875 53.484375 
Q 34.96875 56 40.578125 56 
Q 46.53125 56 50.359375 52.875 
Q 54.203125 49.75 54.984375 44.1875 
Q 59.078125 49.953125 64.46875 52.96875 
Q 69.875 56 75.875 56 
Q 82.90625 56 86.734375 51.953125 
Q 90.578125 47.90625 90.578125 40.484375 
Q 90.578125 38.875 90.375 36.9375 
Q 90.1875 35.015625 89.796875 33.015625 
z
" id="DejaVuSans-Oblique-6d"/>
    <path d="M 25.390625 -1.421875 
Q 15.765625 -1.421875 10.171875 4.515625 
Q 4.59375 10.453125 4.59375 20.703125 
Q 4.59375 26.65625 6.515625 32.828125 
Q 8.453125 39.015625 11.53125 43.21875 
Q 16.359375 49.75 22.3125 52.875 
Q 28.265625 56 35.796875 56 
Q 45.125 56 50.859375 50.1875 
Q 56.59375 44.390625 56.59375 35.015625 
Q 56.59375 28.515625 54.6875 22.0625 
Q 52.78125 15.625 49.703125 11.375 
Q 44.921875 4.828125 38.96875 1.703125 
Q 33.015625 -1.421875 25.390625 -1.421875 
z
M 13.921875 21 
Q 13.921875 13.578125 17.015625 9.890625 
Q 20.125 6.203125 26.421875 6.203125 
Q 35.453125 6.203125 41.375 14.078125 
Q 47.3125 21.96875 47.3125 34.078125 
Q 47.3125 41.15625 44.140625 44.765625 
Q 40.96875 48.390625 34.8125 48.390625 
Q 29.734375 48.390625 25.78125 46.015625 
Q 21.828125 43.65625 18.703125 38.8125 
Q 16.40625 35.203125 15.15625 30.5625 
Q 13.921875 25.921875 13.921875 21 
z
" id="DejaVuSans-Oblique-6f"/>
    <path d="M 47.796875 75.984375 
L 46.390625 68.5 
L 37.796875 68.5 
Q 32.90625 68.5 30.6875 66.578125 
Q 28.46875 64.65625 27.390625 59.515625 
L 26.421875 54.6875 
L 41.21875 54.6875 
L 39.890625 47.703125 
L 25.09375 47.703125 
L 15.828125 0 
L 6.78125 0 
L 16.109375 47.703125 
L 7.515625 47.703125 
L 8.796875 54.6875 
L 17.390625 54.6875 
L 18.109375 58.5 
Q 19.96875 68.171875 24.625 72.078125 
Q 29.296875 75.984375 39.3125 75.984375 
z
" id="DejaVuSans-Oblique-66"/>
    <path d="M 44.578125 46.390625 
Q 43.21875 47.125 41.453125 47.515625 
Q 39.703125 47.90625 37.703125 47.90625 
Q 30.515625 47.90625 25.140625 42.453125 
Q 19.78125 37.015625 18.015625 27.875 
L 12.5 0 
L 3.515625 0 
L 14.203125 54.6875 
L 23.1875 54.6875 
L 21.484375 46.1875 
Q 25.046875 50.921875 30 53.453125 
Q 34.96875 56 40.578125 56 
Q 42.046875 56 43.453125 55.828125 
Q 44.875 55.671875 46.296875 55.28125 
z
" id="DejaVuSans-Oblique-72"/>
    <path d="M 18.3125 75.984375 
L 27.296875 75.984375 
L 12.5 0 
L 3.515625 0 
z
" id="DejaVuSans-Oblique-6c"/>
    <path d="M 49.609375 33.6875 
Q 49.609375 40.875 46.484375 44.671875 
Q 43.359375 48.484375 37.5 48.484375 
Q 33.5 48.484375 29.859375 46.4375 
Q 26.21875 44.390625 23.390625 40.484375 
Q 20.609375 36.625 18.9375 31.15625 
Q 17.28125 25.6875 17.28125 20.3125 
Q 17.28125 13.484375 20.40625 9.796875 
Q 23.53125 6.109375 29.296875 6.109375 
Q 33.546875 6.109375 37.1875 8.109375 
Q 40.828125 10.109375 43.40625 13.921875 
Q 46.1875 17.921875 47.890625 23.34375 
Q 49.609375 28.765625 49.609375 33.6875 
z
M 21.78125 46.390625 
Q 25.390625 51.125 30.296875 53.5625 
Q 35.203125 56 41.21875 56 
Q 49.609375 56 54.25 50.5 
Q 58.890625 45.015625 58.890625 35.109375 
Q 58.890625 27 56 19.65625 
Q 53.125 12.3125 47.703125 6.5 
Q 44.09375 2.640625 39.546875 0.609375 
Q 35.015625 -1.421875 29.984375 -1.421875 
Q 24.171875 -1.421875 20.21875 1 
Q 16.265625 3.421875 14.3125 8.203125 
L 8.6875 -20.796875 
L -0.296875 -20.796875 
L 14.40625 54.6875 
L 23.390625 54.6875 
z
" id="DejaVuSans-Oblique-70"/>
    <path d="M 53.609375 52.59375 
L 51.8125 43.703125 
Q 48.578125 46.046875 44.9375 47.21875 
Q 41.3125 48.390625 37.40625 48.390625 
Q 33.109375 48.390625 29.21875 46.875 
Q 25.34375 45.359375 22.703125 42.578125 
Q 18.5 38.328125 16.203125 32.609375 
Q 13.921875 26.90625 13.921875 20.796875 
Q 13.921875 13.421875 17.609375 9.8125 
Q 21.296875 6.203125 28.8125 6.203125 
Q 32.515625 6.203125 36.6875 7.328125 
Q 40.875 8.453125 45.40625 10.6875 
L 43.703125 1.8125 
Q 39.796875 0.203125 35.671875 -0.609375 
Q 31.546875 -1.421875 27.203125 -1.421875 
Q 16.3125 -1.421875 10.453125 4.015625 
Q 4.59375 9.46875 4.59375 19.578125 
Q 4.59375 28.078125 7.640625 35.234375 
Q 10.6875 42.390625 16.703125 48.09375 
Q 20.796875 52 26.3125 54 
Q 31.84375 56 38.375 56 
Q 42.1875 56 45.9375 55.140625 
Q 49.703125 54.296875 53.609375 52.59375 
z
" id="DejaVuSans-Oblique-63"/>
    <path d="M 49.515625 33.40625 
Q 49.515625 40.484375 46.265625 44.484375 
Q 43.015625 48.484375 37.3125 48.484375 
Q 33.15625 48.484375 29.515625 46.453125 
Q 25.875 44.4375 23.1875 40.578125 
Q 20.359375 36.53125 18.71875 31.171875 
Q 17.09375 25.828125 17.09375 20.515625 
Q 17.09375 13.765625 20.28125 9.9375 
Q 23.484375 6.109375 29.109375 6.109375 
Q 33.34375 6.109375 36.953125 8.078125 
Q 40.578125 10.0625 43.3125 13.921875 
Q 46.09375 17.921875 47.796875 23.234375 
Q 49.515625 28.5625 49.515625 33.40625 
z
M 21.578125 46.390625 
Q 24.90625 50.875 29.90625 53.4375 
Q 34.90625 56 40.375 56 
Q 48.78125 56 53.734375 50.328125 
Q 58.6875 44.671875 58.6875 35.015625 
Q 58.6875 27.09375 55.78125 19.671875 
Q 52.875 12.25 47.515625 6.5 
Q 44 2.6875 39.40625 0.625 
Q 34.8125 -1.421875 29.78125 -1.421875 
Q 24.46875 -1.421875 20.5625 1.015625 
Q 16.65625 3.46875 14.203125 8.296875 
L 12.59375 0 
L 3.609375 0 
L 18.40625 75.984375 
L 27.390625 75.984375 
z
" id="DejaVuSans-Oblique-62"/>
    <path d="M 24.8125 -5.078125 
Q 18.5625 -15.578125 14.625 -18.1875 
Q 10.6875 -20.796875 4.59375 -20.796875 
L -2.484375 -20.796875 
L -0.984375 -13.28125 
L 4.203125 -13.28125 
Q 7.953125 -13.28125 10.59375 -11.234375 
Q 13.234375 -9.1875 16.5 -3.21875 
L 19.28125 2 
L 7.171875 54.6875 
L 16.703125 54.6875 
L 25.78125 12.796875 
L 50.875 54.6875 
L 60.296875 54.6875 
z
" id="DejaVuSans-Oblique-79"/>
    <path d="M 16.890625 72.90625 
L 39.703125 72.90625 
Q 49.65625 72.90625 54.875 68.265625 
Q 60.109375 63.625 60.109375 54.6875 
Q 60.109375 42.671875 52.390625 35.984375 
Q 44.671875 29.296875 30.71875 29.296875 
L 18.3125 29.296875 
L 12.59375 0 
L 2.6875 0 
z
M 25.203125 64.796875 
L 19.921875 37.40625 
L 32.328125 37.40625 
Q 40.71875 37.40625 45.203125 41.703125 
Q 49.703125 46 49.703125 54 
Q 49.703125 59.125 46.65625 61.953125 
Q 43.609375 64.796875 38.09375 64.796875 
z
" id="DejaVuSans-Oblique-50"/>
    <path d="M 11.625 54.6875 
L 54.296875 54.6875 
L 52.6875 46.484375 
L 11.53125 7.171875 
L 45.515625 7.171875 
L 44.09375 0 
L -0.296875 0 
L 1.3125 8.203125 
L 42.484375 47.515625 
L 10.203125 47.515625 
z
" id="DejaVuSans-Oblique-7a"/>
    <path d="M 42.671875 75.875 
Q 29.734375 59.71875 23.359375 45.1875 
Q 17 30.671875 17 17.1875 
Q 17 9.46875 18.84375 1.875 
Q 20.703125 -5.71875 24.421875 -13.1875 
L 16.609375 -13.1875 
Q 12.109375 -4.78125 9.90625 3.140625 
Q 7.71875 11.078125 7.71875 18.703125 
Q 7.71875 33.203125 14.421875 47.4375 
Q 21.140625 61.671875 34.71875 75.875 
z
" id="DejaVuSans-Oblique-28"/>
    <path d="M 17.921875 72.90625 
L 17.921875 45.796875 
L 9.625 45.796875 
L 9.625 72.90625 
z
" id="DejaVuSans-Oblique-27"/>
    <path d="M 69.484375 67.28125 
L 67.484375 56.890625 
Q 62.796875 61.625 57.546875 63.921875 
Q 52.296875 66.21875 46.1875 66.21875 
Q 37.84375 66.21875 31.515625 62.203125 
Q 25.203125 58.203125 20.609375 50 
Q 17.671875 44.734375 16.125 38.84375 
Q 14.59375 32.953125 14.59375 27 
Q 14.59375 17.046875 19.75 11.8125 
Q 24.90625 6.59375 34.71875 6.59375 
Q 41.5 6.59375 47.75 8.765625 
Q 54 10.9375 59.90625 15.28125 
L 57.625 3.609375 
Q 51.8125 1.125 45.875 -0.140625 
Q 39.9375 -1.421875 33.984375 -1.421875 
Q 19.96875 -1.421875 12.078125 6.1875 
Q 4.203125 13.8125 4.203125 27.390625 
Q 4.203125 36.078125 7.203125 44.46875 
Q 10.203125 52.875 15.828125 59.8125 
Q 21.78125 67.1875 29.421875 70.703125 
Q 37.0625 74.21875 47.21875 74.21875 
Q 53.46875 74.21875 59.0625 72.484375 
Q 64.65625 70.75 69.484375 67.28125 
z
" id="DejaVuSans-Oblique-43"/>
    <path d="M 16.890625 72.90625 
L 26.8125 72.90625 
L 12.59375 0 
L 2.6875 0 
z
" id="DejaVuSans-Oblique-49"/>
    <path d="M 8.5 54.6875 
L 17.390625 54.6875 
L 19.671875 10.6875 
L 40.09375 54.6875 
L 50.484375 54.6875 
L 53.515625 10.6875 
L 72.90625 54.6875 
L 81.890625 54.6875 
L 56.890625 0 
L 46.390625 0 
L 43.703125 45.3125 
L 22.796875 0 
L 12.203125 0 
z
" id="DejaVuSans-Oblique-77"/>
    <path d="M -6.203125 -13.1875 
Q 6.78125 2.984375 13.125 17.5 
Q 19.484375 32.03125 19.484375 45.515625 
Q 19.484375 53.21875 17.65625 60.8125 
Q 15.828125 68.40625 12.109375 75.875 
L 19.921875 75.875 
Q 24.421875 67.4375 26.609375 59.5625 
Q 28.8125 51.703125 28.8125 44.09375 
Q 28.8125 29.546875 22.046875 15.203125 
Q 15.28125 0.875 1.8125 -13.1875 
z
" id="DejaVuSans-Oblique-29"/>
    <path d="M 16.796875 72.90625 
L 26.703125 72.90625 
L 14.203125 8.203125 
L 49.703125 8.203125 
L 48.09375 0 
L 2.6875 0 
z
" id="DejaVuSans-Oblique-4c"/>
    <path d="M 5.90625 72.90625 
L 67.578125 72.90625 
L 66.015625 64.59375 
L 39.984375 64.59375 
L 27.484375 0 
L 17.578125 0 
L 30.078125 64.59375 
L 4.296875 64.59375 
z
" id="DejaVuSans-Oblique-54"/>
    <path d="M 55.71875 33.015625 
L 49.3125 0 
L 40.28125 0 
L 46.6875 32.671875 
Q 47.125 34.96875 47.359375 36.71875 
Q 47.609375 38.484375 47.609375 39.5 
Q 47.609375 43.609375 45.015625 45.890625 
Q 42.4375 48.1875 37.796875 48.1875 
Q 30.5625 48.1875 25.265625 43.296875 
Q 19.96875 38.421875 18.40625 30.328125 
L 12.5 0 
L 3.515625 0 
L 18.3125 75.984375 
L 27.296875 75.984375 
L 21.484375 46.09375 
Q 24.90625 50.6875 30.21875 53.34375 
Q 35.546875 56 41.40625 56 
Q 48.640625 56 52.609375 52.09375 
Q 56.59375 48.1875 56.59375 41.109375 
Q 56.59375 39.359375 56.375 37.359375 
Q 56.15625 35.359375 55.71875 33.015625 
z
" id="DejaVuSans-Oblique-68"/>
   </defs>
   <g transform="translate(72.189844 -0.722813)scale(0.18 -0.18)">
    <use xlink:href="#DejaVuSans-Oblique-4e"/>
    <use x="74.804688" xlink:href="#DejaVuSans-Oblique-65"/>
    <use x="136.328125" xlink:href="#DejaVuSans-Oblique-67"/>
    <use x="199.804688" xlink:href="#DejaVuSans-Oblique-61"/>
    <use x="261.083984" xlink:href="#DejaVuSans-Oblique-74"/>
    <use x="300.292969" xlink:href="#DejaVuSans-Oblique-69"/>
    <use x="328.076172" xlink:href="#DejaVuSans-Oblique-76"/>
    <use x="387.255859" xlink:href="#DejaVuSans-Oblique-65"/>
    <use x="448.779297" xlink:href="#DejaVuSans-Oblique-20"/>
    <use x="480.566406" xlink:href="#DejaVuSans-Oblique-73"/>
    <use x="532.666016" xlink:href="#DejaVuSans-Oblique-65"/>
    <use x="594.189453" xlink:href="#DejaVuSans-Oblique-6e"/>
    <use x="657.568359" xlink:href="#DejaVuSans-Oblique-74"/>
    <use x="696.777344" xlink:href="#DejaVuSans-Oblique-69"/>
    <use x="724.560547" xlink:href="#DejaVuSans-Oblique-6d"/>
    <use x="821.972656" xlink:href="#DejaVuSans-Oblique-65"/>
    <use x="883.496094" xlink:href="#DejaVuSans-Oblique-6e"/>
    <use x="946.875" xlink:href="#DejaVuSans-Oblique-74"/>
    <use x="986.083984" xlink:href="#DejaVuSans-Oblique-20"/>
    <use x="1017.871094" xlink:href="#DejaVuSans-Oblique-6f"/>
    <use x="1079.052734" xlink:href="#DejaVuSans-Oblique-66"/>
    <use x="1114.257812" xlink:href="#DejaVuSans-Oblique-20"/>
    <use x="1146.044922" xlink:href="#DejaVuSans-Oblique-67"/>
    <use x="1209.521484" xlink:href="#DejaVuSans-Oblique-65"/>
    <use x="1271.044922" xlink:href="#DejaVuSans-Oblique-6e"/>
    <use x="1334.423828" xlink:href="#DejaVuSans-Oblique-65"/>
    <use x="1395.947266" xlink:href="#DejaVuSans-Oblique-72"/>
    <use x="1437.060547" xlink:href="#DejaVuSans-Oblique-61"/>
    <use x="1498.339844" xlink:href="#DejaVuSans-Oblique-6c"/>
    <use x="1526.123047" xlink:href="#DejaVuSans-Oblique-20"/>
    <use x="1557.910156" xlink:href="#DejaVuSans-Oblique-74"/>
    <use x="1597.119141" xlink:href="#DejaVuSans-Oblique-6f"/>
    <use x="1658.300781" xlink:href="#DejaVuSans-Oblique-70"/>
    <use x="1721.777344" xlink:href="#DejaVuSans-Oblique-69"/>
    <use x="1749.560547" xlink:href="#DejaVuSans-Oblique-63"/>
    <use x="1804.541016" xlink:href="#DejaVuSans-Oblique-73"/>
    <use x="1856.640625" xlink:href="#DejaVuSans-Oblique-20"/>
    <use x="1888.427734" xlink:href="#DejaVuSans-Oblique-62"/>
    <use x="1951.904297" xlink:href="#DejaVuSans-Oblique-79"/>
    <use x="2011.083984" xlink:href="#DejaVuSans-Oblique-20"/>
    <use x="2042.871094" xlink:href="#DejaVuSans-Oblique-50"/>
    <use x="2103.173828" xlink:href="#DejaVuSans-Oblique-6f"/>
    <use x="2164.355469" xlink:href="#DejaVuSans-Oblique-6c"/>
    <use x="2192.138672" xlink:href="#DejaVuSans-Oblique-61"/>
    <use x="2253.417969" xlink:href="#DejaVuSans-Oblique-72"/>
    <use x="2294.53125" xlink:href="#DejaVuSans-Oblique-69"/>
    <use x="2322.314453" xlink:href="#DejaVuSans-Oblique-7a"/>
    <use x="2374.804688" xlink:href="#DejaVuSans-Oblique-61"/>
    <use x="2436.083984" xlink:href="#DejaVuSans-Oblique-74"/>
    <use x="2475.292969" xlink:href="#DejaVuSans-Oblique-69"/>
    <use x="2503.076172" xlink:href="#DejaVuSans-Oblique-6f"/>
    <use x="2564.257812" xlink:href="#DejaVuSans-Oblique-6e"/>
    <use x="2627.636719" xlink:href="#DejaVuSans-Oblique-20"/>
    <use x="2659.423828" xlink:href="#DejaVuSans-Oblique-28"/>
    <use x="2698.4375" xlink:href="#DejaVuSans-Oblique-27"/>
    <use x="2725.927734" xlink:href="#DejaVuSans-Oblique-43"/>
    <use x="2795.751953" xlink:href="#DejaVuSans-Oblique-6f"/>
    <use x="2856.933594" xlink:href="#DejaVuSans-Oblique-6e"/>
    <use x="2920.3125" xlink:href="#DejaVuSans-Oblique-73"/>
    <use x="2972.412109" xlink:href="#DejaVuSans-Oblique-65"/>
    <use x="3033.935547" xlink:href="#DejaVuSans-Oblique-72"/>
    <use x="3075.048828" xlink:href="#DejaVuSans-Oblique-76"/>
    <use x="3134.228516" xlink:href="#DejaVuSans-Oblique-61"/>
    <use x="3195.507812" xlink:href="#DejaVuSans-Oblique-74"/>
    <use x="3234.716797" xlink:href="#DejaVuSans-Oblique-69"/>
    <use x="3262.5" xlink:href="#DejaVuSans-Oblique-76"/>
    <use x="3321.679688" xlink:href="#DejaVuSans-Oblique-65"/>
    <use x="3383.203125" xlink:href="#DejaVuSans-Oblique-27"/>
    <use x="3410.693359" xlink:href="#DejaVuSans-Oblique-20"/>
    <use x="3442.480469" xlink:href="#DejaVuSans-Oblique-28"/>
    <use x="3481.494141" xlink:href="#DejaVuSans-Oblique-49"/>
    <use x="3510.986328" xlink:href="#DejaVuSans-Oblique-6e"/>
    <use x="3574.365234" xlink:href="#DejaVuSans-Oblique-66"/>
    <use x="3609.570312" xlink:href="#DejaVuSans-Oblique-6f"/>
    <use x="3670.751953" xlink:href="#DejaVuSans-Oblique-77"/>
    <use x="3752.539062" xlink:href="#DejaVuSans-Oblique-61"/>
    <use x="3813.818359" xlink:href="#DejaVuSans-Oblique-72"/>
    <use x="3854.931641" xlink:href="#DejaVuSans-Oblique-73"/>
    <use x="3907.03125" xlink:href="#DejaVuSans-Oblique-29"/>
    <use x="3946.044922" xlink:href="#DejaVuSans-Oblique-20"/>
    <use x="3977.832031" xlink:href="#DejaVuSans-Oblique-74"/>
    <use x="4017.041016" xlink:href="#DejaVuSans-Oblique-6f"/>
    <use x="4078.222656" xlink:href="#DejaVuSans-Oblique-20"/>
    <use x="4110.009766" xlink:href="#DejaVuSans-Oblique-27"/>
    <use x="4137.5" xlink:href="#DejaVuSans-Oblique-4c"/>
    <use x="4193.212891" xlink:href="#DejaVuSans-Oblique-69"/>
    <use x="4220.996094" xlink:href="#DejaVuSans-Oblique-62"/>
    <use x="4284.472656" xlink:href="#DejaVuSans-Oblique-65"/>
    <use x="4345.996094" xlink:href="#DejaVuSans-Oblique-72"/>
    <use x="4387.109375" xlink:href="#DejaVuSans-Oblique-61"/>
    <use x="4448.388672" xlink:href="#DejaVuSans-Oblique-6c"/>
    <use x="4476.171875" xlink:href="#DejaVuSans-Oblique-27"/>
    <use x="4503.662109" xlink:href="#DejaVuSans-Oblique-20"/>
    <use x="4535.449219" xlink:href="#DejaVuSans-Oblique-28"/>
    <use x="4574.462891" xlink:href="#DejaVuSans-Oblique-54"/>
    <use x="4635.546875" xlink:href="#DejaVuSans-Oblique-68"/>
    <use x="4698.925781" xlink:href="#DejaVuSans-Oblique-65"/>
    <use x="4760.449219" xlink:href="#DejaVuSans-Oblique-20"/>
    <use x="4792.236328" xlink:href="#DejaVuSans-Oblique-4e"/>
    <use x="4867.041016" xlink:href="#DejaVuSans-Oblique-61"/>
    <use x="4928.320312" xlink:href="#DejaVuSans-Oblique-74"/>
    <use x="4967.529297" xlink:href="#DejaVuSans-Oblique-69"/>
    <use x="4995.3125" xlink:href="#DejaVuSans-Oblique-6f"/>
    <use x="5056.494141" xlink:href="#DejaVuSans-Oblique-6e"/>
    <use x="5119.873047" xlink:href="#DejaVuSans-Oblique-29"/>
    <use x="5158.886719" xlink:href="#DejaVuSans-Oblique-29"/>
   </g>
  </g>
 </g>
 <defs>
  <clipPath id="p9be4e9532c">
   <rect height="114.24" width="516.8" x="14.3" y="24.8"/>
  </clipPath>
  <clipPath id="pec03602c48">
   <rect height="114.24" width="516.8" x="548.9" y="24.8"/>
  </clipPath>
  <clipPath id="pdb9928c4de">
   <rect height="114.24" width="516.8" x="14.3" y="167.34"/>
  </clipPath>
  <clipPath id="pdf4e036f18">
   <rect height="114.24" width="516.8" x="548.9" y="167.34"/>
  </clipPath>
  <clipPath id="p8652e03829">
   <rect height="114.24" width="516.8" x="14.3" y="309.88"/>
  </clipPath>
 </defs>
</svg>
